# xmcd
#
# Track frame offsets:
#	150
#	12635
#	23599
#	34531
#	46744
#	58962
#	68796
#	81033
#	91486
#	102543
#	111056
#	125002
#	138032
#	148838
#	158420
#	167834
#	177592
#	188965
#	199158
#	209005
#	219208
#
# Disc length: 3047 seconds
# Revision: 0
# Processed by: cddbd v1.5.2PL0 Copyright (c) Steve Scherf et al.
# Submitted via: dBpowerAMP V12.0
#
DISCID=2e0be515
DTITLE=Roy Orbsion - Crying - The Magic Of Roy Orbison
DYEAR=2012
DGENRE=Rock and Roll
TTITLE0=Crying
TTITLE1=Only The Lonely
TTITLE2=Love Hurts
TTITLE3=I Can't Stop Loving You
TTITLE4=Candy Man
TTITLE5=Today's Teardrops
TTITLE6=Cry
TTITLE7=Blue Avenue
TTITLE8=Come Back To Me
TTITLE9=Raindrops
TTITLE10=(I'd Be) A Legend In My Own Time
TTITLE11=22 Days
TTITLE12=I'll Say It's My Fault
TTITLE13=Go Go Go
TTITLE14=You're My Baby
TTITLE15=Devil Doll
TTITLE16=I Like Love
TTITLE17=Seems To Me
TTITLE18=Sweet And Easy To Love
TTITLE19=Chicken Hearted
TTITLE20=Rock House
EXTD=
EXTT0=
EXTT1=
EXTT2=
EXTT3=
EXTT4=
EXTT5=
EXTT6=
EXTT7=
EXTT8=
EXTT9=
EXTT10=
EXTT11=
EXTT12=
EXTT13=
EXTT14=
EXTT15=
EXTT16=
EXTT17=
EXTT18=
EXTT19=
EXTT20=
PLAYORDER=
